<svg xmlns="http://www.w3.org/2000/svg" version="1.1" xmlns:xlink="http://www.w3.org/1999/xlink" xmlns:svgjs="http://svgjs.dev/svgjs" width="1000" height="1000" viewBox="0 0 1000 1000"><g transform="matrix(1,0,0,1,0,-0.00016826063750841058)"><svg viewBox="0 0 280 280" data-background-color="#ffffff" preserveAspectRatio="xMidYMid meet" height="1000" width="1000" xmlns="http://www.w3.org/2000/svg" xmlns:xlink="http://www.w3.org/1999/xlink"><g id="tight-bounds" transform="matrix(1,0,0,1,0,0.000047112978506902436)"><svg viewBox="0 0 280 280" height="280" width="280"><g><svg viewBox="0 0 280 280" height="280" width="280"><g><svg viewBox="0 0 280 280" height="280" width="280"><g id="textblocktransform"><svg viewBox="0 0 280 280" height="280" width="280" id="textblock"><g><svg viewBox="0 0 280 280" height="280" width="280"><g transform="matrix(1,0,0,1,75.32329974747046,74.00336708925556)"><svg viewBox="0 0 129.35340050505908 131.99326582148888" height="131.99326582148888" width="129.35340050505908"><g><svg xmlns="http://www.w3.org/2000/svg" xmlns:xlink="http://www.w3.org/1999/xlink" version="1.1" x="0" y="0" viewBox="0 0 98 100" enable-background="new 0 0 100 100" xml:space="preserve" height="131.99326582148888" width="129.35340050505908" class="icon-o-0" data-fill-palette-color="accent" id="o-0"><g fill="#001f3f" data-fill-palette-color="accent"><circle cx="49.494" cy="6.603" r="2.1" fill="#001f3f" data-fill-palette-color="accent"></circle><path d="M18.267 34.851l6.123-7.465c0.518-0.63 0.425-1.56-0.204-2.076-0.629-0.517-1.56-0.424-2.076 0.204l-6.972 8.499c-0.481 0.586-0.439 1.443 0.098 1.979l7.593 7.591c0.288 0.289 0.665 0.433 1.042 0.433 0.378 0 0.755-0.144 1.043-0.433 0.576-0.576 0.576-1.51 0-2.086L18.267 34.851z" fill="#001f3f" data-fill-palette-color="accent"></path><path d="M44.093 32.998L36.5 25.406c-0.576-0.576-1.509-0.576-2.086 0-0.576 0.577-0.576 1.511 0 2.087l6.647 6.646-6.123 7.465c-0.516 0.63-0.424 1.56 0.206 2.077 0.274 0.225 0.605 0.334 0.935 0.334 0.427 0 0.851-0.185 1.142-0.54l6.97-8.499C44.671 34.39 44.63 33.534 44.093 32.998z" fill="#001f3f" data-fill-palette-color="accent"></path><path d="M88.568 0H9.432C4.491 0 0 4.02 0 8.96v55.608C0 69.51 4.491 74 9.432 74h31.279c0.159 2 0.311 8.268-0.323 10.369-1.163 1.729-13.49 5.365-24.164 7.854C15.56 92.379 15 92.854 15 93.537v4.992c0 0.813 0.835 1.471 1.647 1.471h64.707C82.166 100 83 99.342 83 98.529v-4.992c0-0.684-0.559-1.277-1.225-1.434-10.732-2.486-23.082-6.008-24.202-7.625C56.896 82.277 56.925 76 57.039 74h31.529C93.508 74 98 69.51 98 64.568V8.96C98 4.02 93.508 0 88.568 0zM80 94.703V97H18v-2.298c11-2.638 24.097-6.121 25.095-9.362C43.963 82.512 43.796 76 43.657 74h10.438c-0.104 2-0.188 8.514 0.682 11.343C55.773 88.583 69 92.064 80 94.703zM95 64.98c0 3.326-3.695 6.02-7.02 6.02H9.02C5.695 71 3 68.307 3 64.98V9.019C3 5.695 5.695 3 9.02 3h78.96C91.305 3 95 5.695 95 9.019V64.98z" fill="#001f3f" data-fill-palette-color="accent"></path><path d="M88.529 12H9.471C8.659 12 8 12.659 8 13.471v44.058C8 58.342 8.659 59 9.471 59h79.058C89.342 59 90 58.342 90 57.529V13.471C90 12.659 89.342 12 88.529 12zM11 15h37v41H11V15zM87 56H51V15h36V56z" fill="#001f3f" data-fill-palette-color="accent"></path><path d="M54.5 36h29c0.828 0 1.5-0.671 1.5-1.5v-16c0-0.829-0.672-1.5-1.5-1.5h-29c-0.828 0-1.5 0.671-1.5 1.5v16C53 35.329 53.672 36 54.5 36zM56 20h26v13H56V20z" fill="#001f3f" data-fill-palette-color="accent"></path><path d="M83 39H55c-0.828 0-1.5 0.671-1.5 1.5S54.172 42 55 42h28c0.828 0 1.5-0.671 1.5-1.5S83.828 39 83 39z" fill="#001f3f" data-fill-palette-color="accent"></path><path d="M83 45H55c-0.828 0-1.5 0.671-1.5 1.5S54.172 48 55 48h28c0.828 0 1.5-0.671 1.5-1.5S83.828 45 83 45z" fill="#001f3f" data-fill-palette-color="accent"></path><path d="M83 51H55c-0.828 0-1.5 0.672-1.5 1.5S54.172 54 55 54h28c0.828 0 1.5-0.672 1.5-1.5S83.828 51 83 51z" fill="#001f3f" data-fill-palette-color="accent"></path></g></svg></g></svg></g><g><path d="M20.969 95.204c0.147-0.065 0.264-0.21 0.35-0.435 0.084-0.219 0.111-0.427 0.08-0.625v0c-2.137-0.43-3.412-0.656-3.826-0.68v0c-0.436-0.003-0.711 0.142-0.824 0.435v0c-0.051 0.131-0.073 0.302-0.068 0.512v0zM25.387 101.406v0c0.13 0.201 0.277 0.333 0.439 0.395v0c0.381 0.147 0.838-0.089 1.371-0.708 0.533-0.619 1.033-1.431 1.498-2.434v0c1.957 0.561 3.108 0.794 3.454 0.697v0c0.391 0.438 0.613 1.32 0.668 2.646 0.057 1.32-0.189 2.692-0.738 4.116v0c-0.727 1.886-1.756 3.343-3.085 4.372-1.33 1.029-2.631 1.298-3.905 0.807v0c-0.343-0.132-0.634-0.281-0.872-0.444v0l-17.189-11.473c-0.27-1.309-0.312-2.771-0.127-4.385 0.183-1.608 0.579-3.202 1.189-4.781v0c0.874-2.266 2.002-4.055 3.382-5.366v0c1.582-1.498 3.27-2.127 5.064-1.887v0l20.375 2.685c1.252 2.054 1.28 4.629 0.086 7.726v0c-0.581 1.505-1.343 2.674-2.289 3.507-0.937 0.829-1.938 1.139-3.005 0.928v0l-2.583-0.501c0.293-0.798 0.439-1.62 0.436-2.468-0.009-0.85-0.17-1.335-0.482-1.456v0c-0.212-0.082-0.418-0.061-0.616 0.064v0c0.163 0.637 0.196 1.352 0.097 2.146-0.092 0.796-0.257 1.504-0.496 2.122v0c-0.686 1.779-1.577 3.01-2.672 3.692z" fill="#50a060" data-fill-palette-color="primary"></path><path d="M28.427 61.421v0l0.776 0.554c0.623 1.143 1.115 2.025 1.479 2.646 0.363 0.621 0.642 1.001 0.838 1.141v0c0.332 0.237 0.633 0.168 0.901-0.208v0l-5.018-8.711c0.05-1.165 0.565-2.433 1.545-3.806 0.98-1.373 2.2-2.282 3.661-2.727v0c1.623-0.477 3.17-0.191 4.641 0.858v0c1.231 0.879 2.144 2.163 2.738 3.853 0.589 1.686 0.835 3.519 0.738 5.497v0c-0.805 0.379-1.388 0.822-1.75 1.329-0.362 0.507-0.294 0.937 0.201 1.29v0c0.481-0.454 0.967-0.831 1.46-1.129 0.498-0.294 1.226-0.543 2.185-0.746v0l7.496-1.569c3.489 2.991 4.024 6.181 1.605 9.569v0c-0.894 1.253-1.983 2.099-3.268 2.54v0c-1.5 0.524-3.23 0.539-5.187 0.046v0l-5.139-1.251-0.064 0.09c-0.268 0.376-0.242 0.678 0.08 0.908v0c0.207 0.148 0.82 0.343 1.839 0.585v0c1.09 0.293 2.583 0.631 4.48 1.015v0l1.332 0.951c0.215 1.979-0.497 4.118-2.138 6.416v0c-0.883 1.236-1.921 2.098-3.116 2.586v0c-1.321 0.561-2.546 0.44-3.673-0.365v0l-17.795-12.702c-0.235-1.952 0.509-4.134 2.231-6.547v0c0.894-1.253 1.916-2.126 3.067-2.62v0c1.339-0.54 2.625-0.371 3.855 0.507z" fill="#50a060" data-fill-palette-color="primary"></path><path d="M46.471 35.139v0l9.237-8.01c0.751 0.243 1.463 0.605 2.136 1.084 0.673 0.47 1.218 0.945 1.635 1.426v0c0.934 1.077 1.423 2.07 1.467 2.979 0.054 0.91-0.298 1.694-1.057 2.352v0l-6.447 5.589c-0.394 0.342-0.458 0.667-0.19 0.976v0l0.112 0.129c0.057 0.066 0.104 0.1 0.142 0.102v0l7.652-6.635c0.477 0.162 1.003 0.437 1.578 0.824v0c0.595 0.431 1.08 0.862 1.452 1.292v0c1.1 1.269 1.727 2.462 1.88 3.578v0l-3.473 3.012c-1.623 1.407-2.67 2.421-3.141 3.042-0.467 0.626-0.733 1.039-0.8 1.238v0c-0.058 0.219-0.022 0.404 0.11 0.556 0.132 0.152 0.308 0.202 0.53 0.152v0c0.398-0.655 0.87-1.285 1.415-1.892v0c0.733-0.768 1.57-1.56 2.511-2.376v0l4.497-3.899c1.441 0.354 2.722 1.178 3.844 2.472v0c0.627 0.723 1.136 1.495 1.529 2.315 0.397 0.816 0.589 1.584 0.576 2.304v0l-11.99 10.396c-1.32 1.144-2.655 1.744-4.007 1.8v0c-1.471 0.071-2.778-0.554-3.922-1.873v0l-13.198-15.222c-0.443-0.511-0.181-1.393 0.786-2.648 0.971-1.25 2.683-2.938 5.136-5.063z" fill="#50a060" data-fill-palette-color="primary"></path><path d="M72.492 16.895v0l10.794-5.741c0.678 0.405 1.291 0.916 1.839 1.534 0.551 0.609 0.976 1.194 1.275 1.755v0c0.669 1.258 0.924 2.336 0.764 3.232-0.151 0.899-0.67 1.584-1.556 2.056v0l-7.533 4.007c-0.461 0.245-0.595 0.548-0.403 0.908v0l0.08 0.15c0.041 0.077 0.079 0.121 0.115 0.132v0l8.942-4.756c0.429 0.265 0.88 0.65 1.354 1.156v0c0.484 0.554 0.86 1.082 1.127 1.583v0c0.789 1.483 1.133 2.785 1.032 3.908v0l-4.059 2.159c-1.897 1.009-3.144 1.763-3.741 2.263-0.595 0.506-0.947 0.849-1.057 1.028v0c-0.106 0.2-0.111 0.389-0.017 0.567 0.094 0.177 0.255 0.266 0.483 0.266v0c0.534-0.549 1.135-1.058 1.802-1.527v0c0.886-0.585 1.879-1.17 2.978-1.755v0l5.256-2.795c1.325 0.667 2.39 1.757 3.194 3.269v0c0.449 0.845 0.774 1.711 0.973 2.598 0.205 0.884 0.22 1.675 0.046 2.374v0l-14.011 7.453c-1.542 0.82-2.978 1.106-4.307 0.859v0c-1.45-0.26-2.584-1.161-3.405-2.703v0l-9.461-17.787c-0.317-0.597 0.135-1.398 1.358-2.405 1.226-1.001 3.272-2.263 6.138-3.787z" fill="#50a060" data-fill-palette-color="primary"></path><path d="M119.491 28.413l-14.847 4.08c-1.51 0.415-2.788 0.336-3.834-0.237-1.041-0.581-1.784-1.682-2.23-3.302v0l-5.49-19.977c0.548-0.81 1.299-1.523 2.254-2.14 0.947-0.621 1.978-1.085 3.095-1.391v0c1.652-0.454 3.162-0.428 4.528 0.077v0c1.493 0.582 2.463 1.69 2.912 3.322v0l3.073 11.18c-0.744 0.274-1.434 0.692-2.07 1.255-0.636 0.564-0.902 1.036-0.798 1.417v0c0.064 0.232 0.247 0.394 0.55 0.484v0c1.038-1.5 2.883-2.614 5.535-3.343v0l4.84-1.33c1.338 1.333 2.233 2.822 2.685 4.467v0c0.225 0.82 0.329 1.766 0.312 2.839-0.011 1.072-0.182 1.938-0.515 2.599z" fill="#50a060" data-fill-palette-color="primary"></path><path d="M131.732 28.4v0c-1.372 0.022-2.518-0.066-3.437-0.265v0c-1.276-0.247-2.216-0.647-2.821-1.199v0c-1.371-2.789-2.555-5.848-3.553-9.179v0c-1.394-4.609-2.392-9.375-2.994-14.297v0c0.621-0.94 1.479-1.677 2.575-2.21 1.089-0.533 2.313-0.811 3.67-0.833v0c2.034-0.033 3.64 0.329 4.817 1.086 1.177 0.757 1.777 1.855 1.8 3.294v0c-0.083 1.079-0.144 2.656-0.184 4.731-0.046 2.076-0.056 3.953-0.028 5.633v0c0.008 0.468 0.06 0.832 0.158 1.091 0.091 0.26 0.287 0.387 0.589 0.382v0c0.114-0.002 0.254-0.028 0.42-0.077v0c-0.015-0.127-0.026-0.338-0.03-0.632v0l-0.012-0.743c-0.033-2.047-0.002-4.407 0.095-7.079 0.097-2.679 0.232-4.679 0.404-6v0c1.272-0.81 2.778-1.23 4.517-1.258 1.74-0.028 3.142 0.19 4.208 0.654v0c1.281 0.575 1.964 1.434 2.049 2.577v0c-0.044 1.379-0.153 2.743-0.324 4.091-0.166 1.341-0.368 2.891-0.607 4.648-0.239 1.757-0.391 2.918-0.456 3.481v0c0.115 0.052 0.262 0.076 0.443 0.073 0.187-0.003 0.357-0.076 0.509-0.219 0.152-0.143 0.273-0.483 0.365-1.02v0c0.398-2.269 0.721-4.657 0.967-7.163 0.24-2.514 0.385-4.701 0.435-6.563v0c1.29-0.898 3.077-1.365 5.358-1.403v0c1.853-0.03 3.337 0.438 4.451 1.404 1.12 0.959 1.693 2.265 1.72 3.917v0c0.018 1.104-0.457 4-1.425 8.687v0c-0.495 2.464-0.976 4.574-1.443 6.328-0.467 1.748-0.852 2.979-1.154 3.694v0c-0.626 1.436-1.579 2.479-2.86 3.128-1.281 0.65-2.922 0.991-4.923 1.024v0c-0.81 0.013-1.742-0.092-2.796-0.316-1.054-0.224-1.858-0.478-2.412-0.764v0c-0.288-0.437-0.617-1.098-0.986-1.981-0.369-0.877-0.601-1.543-0.695-1.997v0c-0.548 0.022-0.818 0.325-0.809 0.907v0c0.007 0.448 0.238 1.278 0.693 2.488v0c-1.459 1.208-3.557 1.835-6.294 1.88z" fill="#50a060" data-fill-palette-color="primary"></path><path d="M175.094 4.139v0l11.811 3.156c0.22 0.758 0.32 1.55 0.3 2.377-0.012 0.821-0.1 1.539-0.263 2.153v0c-0.368 1.377-0.916 2.339-1.644 2.885-0.723 0.555-1.57 0.703-2.54 0.444v0l-8.243-2.203c-0.504-0.135-0.809-0.005-0.914 0.39v0l-0.044 0.164c-0.022 0.084-0.024 0.142-0.006 0.176v0l9.785 2.615c0.133 0.486 0.201 1.075 0.203 1.768v0c-0.023 0.735-0.108 1.377-0.255 1.927v0c-0.434 1.623-1.07 2.81-1.908 3.563v0l-4.442-1.187c-2.075-0.555-3.502-0.853-4.28-0.895-0.78-0.035-1.271-0.025-1.474 0.033v0c-0.214 0.074-0.347 0.209-0.398 0.402-0.052 0.194 0.005 0.369 0.171 0.524v0c0.765-0.038 1.552-0.001 2.36 0.111v0c1.047 0.176 2.172 0.425 3.375 0.746v0l5.751 1.537c0.515 1.391 0.551 2.915 0.109 4.57v0c-0.247 0.925-0.6 1.779-1.059 2.563-0.453 0.786-0.981 1.376-1.585 1.769v0l-15.332-4.097c-1.687-0.451-2.933-1.22-3.737-2.308v0c-0.883-1.178-1.1-2.611-0.649-4.298v0l5.202-19.463c0.174-0.653 1.052-0.931 2.633-0.834 1.579 0.103 3.937 0.574 7.073 1.412z" fill="#50a060" data-fill-palette-color="primary"></path><path d="M198.778 30.998l-1.243 2.295c0.034 0.064 0.168 0.16 0.404 0.287 0.235 0.128 0.458 0.145 0.667 0.054 0.213-0.098 0.429-0.35 0.649-0.756v0l0.191-0.353c0.249-0.459 0.374-0.817 0.377-1.074 0.002-0.257-0.117-0.452-0.358-0.583-0.241-0.131-0.42-0.193-0.537-0.188v0c-0.02 0.065-0.07 0.171-0.15 0.319zM202.479 24.167l-1.143 2.11c0.034 0.064 0.168 0.16 0.404 0.287 0.235 0.128 0.466 0.131 0.691 0.009 0.222-0.115 0.448-0.385 0.678-0.809v0l0.062-0.114c0.242-0.447 0.363-0.797 0.363-1.048-0.004-0.246-0.126-0.434-0.368-0.565-0.241-0.131-0.419-0.196-0.533-0.197v0c-0.023 0.071-0.075 0.18-0.154 0.327zM185.865 30.705l9.253-17.079c0.153-0.282 0.564-0.479 1.232-0.588v0c1.402-0.214 3.472 0.145 6.207 1.08v0c1.415 0.493 2.905 1.163 4.471 2.011v0c3.725 2.018 6.152 4.265 7.284 6.743v0c0.992 2.174 0.93 4.29-0.186 6.349v0c-0.405 0.747-0.93 1.407-1.575 1.979-0.654 0.574-1.319 0.91-1.996 1.007v0c-0.477-0.692-1.019-1.203-1.625-1.531v0c-0.288-0.156-0.536-0.218-0.744-0.186-0.208 0.032-0.391 0.195-0.55 0.49v0c1.783 1.065 2.847 2.494 3.192 4.286v0c0.294 1.621-0.013 3.269-0.922 4.946v0c-1.406 2.595-3.513 3.893-6.322 3.894v0c-2.635 0.003-6.003-1.106-10.104-3.328v0c-2.865-1.552-4.921-2.78-6.167-3.684-1.243-0.909-1.98-1.86-2.211-2.853-0.231-0.993 0.023-2.172 0.763-3.536z" fill="#50a060" data-fill-palette-color="primary"></path><path d="M225.807 47.943l1.245-1.364c0.952-1.043 1.56-1.802 1.823-2.278 0.263-0.476 0.268-0.829 0.016-1.06v0c-0.153-0.14-0.341-0.217-0.565-0.23v0c-0.147 0.21-0.343 0.489-0.587 0.837-0.244 0.357-0.831 1.044-1.761 2.062v0l-0.928 1.015c-0.65 0.712-1.139 1.212-1.466 1.502-0.328 0.299-0.605 0.553-0.833 0.763v0c-0.123 0.115-0.25 0.229-0.382 0.344v0c0.034 0.221 0.127 0.402 0.28 0.541v0c0.252 0.23 0.603 0.193 1.054-0.111 0.45-0.305 1.152-0.978 2.104-2.021zM215.308 55.673l-3.958-3.615c-1.156-1.056-1.771-2.179-1.844-3.369-0.063-1.191 0.471-2.406 1.604-3.647v0l12.854-14.075c0.722-0.791 2.127-0.736 4.214 0.164 2.092 0.905 4.119 2.253 6.081 4.044v0c3.449 3.15 5.382 6.447 5.798 9.891v0c0.447 3.698-0.952 7.324-4.196 10.876v0c-2.924 3.202-6.202 4.762-9.835 4.681-3.623-0.082-7.196-1.732-10.718-4.95z" fill="#50a060" data-fill-palette-color="primary"></path><path d="M256.115 60.606v0l6.851 10.127c-0.331 0.717-0.775 1.381-1.332 1.991-0.547 0.613-1.084 1.097-1.61 1.453v0c-1.181 0.799-2.225 1.166-3.133 1.102-0.91-0.055-1.646-0.498-2.209-1.33v0l-4.78-7.067c-0.292-0.432-0.608-0.534-0.946-0.306v0l-0.142 0.096c-0.072 0.049-0.112 0.092-0.118 0.129v0l5.675 8.389c-0.218 0.454-0.553 0.944-1.007 1.468v0c-0.499 0.54-0.985 0.969-1.455 1.288v0c-1.391 0.941-2.65 1.421-3.777 1.44v0l-2.576-3.808c-1.204-1.779-2.086-2.94-2.646-3.482-0.566-0.538-0.944-0.852-1.134-0.941v0c-0.21-0.084-0.399-0.07-0.565 0.042-0.166 0.112-0.238 0.282-0.214 0.509v0c0.603 0.473 1.172 1.017 1.71 1.631v0c0.676 0.82 1.362 1.745 2.059 2.775v0l3.336 4.931c-0.523 1.388-1.494 2.562-2.914 3.522v0c-0.793 0.536-1.619 0.95-2.48 1.242-0.857 0.297-1.643 0.396-2.357 0.297v0l-8.892-13.145c-0.979-1.447-1.415-2.844-1.309-4.192v0c0.105-1.469 0.881-2.693 2.328-3.672v0l16.686-11.288c0.56-0.379 1.405-0.013 2.536 1.097 1.125 1.113 2.597 3.014 4.415 5.702z" fill="#50a060" data-fill-palette-color="primary"></path><path d="M268.394 93.09v0l-12.839 4.068c0.021 0.171 0.053 0.316 0.098 0.435v0c0.164 0.439 0.587 0.56 1.271 0.362v0l14.773-4.511c0.512 0.281 1.11 0.918 1.795 1.913v0c0.626 0.952 1.097 1.851 1.413 2.698v0c0.746 2 0.845 3.666 0.299 4.998-0.538 1.336-1.527 2.273-2.97 2.811v0c-0.809 0.302-2.741 0.647-5.795 1.035-3.059 0.397-7.213 0.871-12.465 1.422v0c-1.846 0.181-3.433-0.377-4.759-1.675v0c-1.148-1.143-2.143-2.847-2.987-5.111v0c-0.533-1.43-0.876-2.837-1.028-4.223-0.161-1.39-0.086-2.578 0.224-3.566v0c1.911-1.905 4.685-4.139 8.322-6.701 3.633-2.554 7.416-4.868 11.35-6.941v0c2.302 0.563 3.958 2.199 4.968 4.908v0c1.302 3.493 0.745 6.186-1.67 8.078z" fill="#50a060" data-fill-palette-color="primary"></path><path d="M24.248 186.706c-0.068 0.141-0.058 0.324 0.029 0.548 0.084 0.219 0.204 0.391 0.36 0.518v0c1.854-1.108 2.942-1.792 3.265-2.053v0c0.319-0.288 0.424-0.575 0.313-0.863v0c-0.05-0.131-0.148-0.273-0.292-0.425v0zM16.869 185.082v0c-0.238-0.059-0.435-0.059-0.591 0.002v0c-0.381 0.147-0.559 0.624-0.535 1.432 0.018 0.811 0.19 1.741 0.515 2.792v0c-1.815 0.892-2.816 1.486-3.004 1.78v0c-0.583-0.062-1.335-0.562-2.255-1.498-0.926-0.934-1.661-2.107-2.204-3.519v0c-0.719-1.867-0.932-3.624-0.641-5.271 0.291-1.647 1.071-2.714 2.339-3.202v0c0.337-0.13 0.65-0.211 0.939-0.243v0l20.288-3.011c1.07 0.786 2.075 1.833 3.016 3.141 0.932 1.305 1.701 2.744 2.307 4.318v0c0.865 2.248 1.227 4.314 1.084 6.198v0c-0.162 2.149-0.986 3.735-2.471 4.758v0l-16.778 11.599c-2.291-0.681-4.029-2.558-5.211-5.631v0c-0.575-1.493-0.792-2.858-0.651-4.095 0.138-1.243 0.671-2.141 1.599-2.691v0l2.232-1.354c0.313 0.776 0.755 1.477 1.326 2.103 0.569 0.62 1.009 0.87 1.321 0.75v0c0.212-0.082 0.352-0.232 0.418-0.451v0c-0.548-0.363-1.051-0.868-1.509-1.517-0.464-0.646-0.815-1.278-1.052-1.896v0c-0.678-1.761-0.838-3.259-0.482-4.494z" fill="#c9efc7" data-fill-palette-color="default"></path><path d="M46.49 208.859v0l-0.776 0.554c-1.269 0.214-2.256 0.392-2.961 0.532-0.7 0.137-1.147 0.275-1.344 0.415v0c-0.332 0.237-0.365 0.543-0.096 0.92v0l9.804-1.897c1.072 0.42 2.095 1.313 3.069 2.682 0.971 1.362 1.43 2.802 1.377 4.319v0c-0.08 1.676-0.85 3.034-2.31 4.074v0c-1.221 0.87-2.719 1.309-4.496 1.319-1.771 0.005-3.573-0.355-5.404-1.08v0c-0.092-0.879-0.317-1.569-0.675-2.07-0.357-0.501-0.781-0.577-1.272-0.228v0c0.269 0.597 0.463 1.174 0.581 1.731 0.116 0.566 0.115 1.332-0.004 2.295v0l-0.948 7.542c-3.937 2.305-7.106 1.773-9.506-1.595v0c-0.885-1.243-1.323-2.537-1.314-3.883v0c-0.008-1.58 0.533-3.207 1.625-4.881v0l2.837-4.425-0.058-0.082c-0.268-0.376-0.563-0.449-0.885-0.22v0c-0.202 0.144-0.585 0.655-1.149 1.534v0c-0.626 0.931-1.426 2.224-2.4 3.88v0l-1.316 0.938c-1.928-0.434-3.704-1.79-5.327-4.068v0c-0.882-1.237-1.354-2.494-1.419-3.772v0c-0.102-1.423 0.406-2.532 1.523-3.328v0l17.665-12.59c1.912 0.412 3.721 1.814 5.426 4.207v0c0.889 1.248 1.381 2.492 1.476 3.731v0c0.072 1.428-0.502 2.576-1.723 3.446z" fill="#c9efc7" data-fill-palette-color="default"></path><path d="M66.264 225.23v0l9.165 7.955c-0.14 0.774-0.393 1.524-0.759 2.253-0.375 0.729-0.769 1.33-1.182 1.805v0c-0.926 1.066-1.833 1.688-2.721 1.865-0.884 0.181-1.702-0.055-2.455-0.709v0l-6.398-5.554c-0.389-0.338-0.717-0.353-0.985-0.044v0l-0.106 0.121c-0.057 0.066-0.084 0.117-0.081 0.155v0l7.588 6.587c-0.098 0.491-0.294 1.048-0.586 1.671v0c-0.339 0.645-0.692 1.18-1.061 1.605v0c-1.092 1.258-2.18 2.042-3.264 2.351v0l-3.449-2.994c-1.607-1.395-2.749-2.28-3.425-2.654-0.676-0.374-1.12-0.578-1.331-0.611v0c-0.22-0.032-0.396 0.028-0.528 0.18-0.127 0.147-0.152 0.329-0.075 0.546v0c0.709 0.296 1.395 0.67 2.057 1.121v0c0.859 0.613 1.754 1.323 2.684 2.13v0l4.465 3.876c-0.148 1.467-0.777 2.839-1.887 4.118v0c-0.627 0.723-1.315 1.336-2.061 1.839-0.752 0.499-1.481 0.792-2.187 0.881v0l-11.894-10.324c-1.309-1.136-2.084-2.367-2.324-3.693v0c-0.281-1.432 0.146-2.802 1.282-4.111v0l13.107-15.1c0.439-0.505 1.34-0.37 2.704 0.406 1.374 0.776 3.276 2.219 5.707 4.329z" fill="#c9efc7" data-fill-palette-color="default"></path><path d="M86.689 239.643v0l10.713 5.702c0.037 0.785-0.042 1.574-0.235 2.365-0.203 0.794-0.452 1.469-0.748 2.024v0c-0.663 1.246-1.409 2.055-2.235 2.426-0.821 0.374-1.671 0.327-2.552-0.141v0l-7.478-3.98c-0.455-0.242-0.778-0.183-0.97 0.177v0l-0.076 0.142c-0.041 0.077-0.056 0.133-0.045 0.169v0l8.87 4.721c0.014 0.5-0.052 1.087-0.197 1.76v0c-0.186 0.705-0.41 1.305-0.675 1.802v0c-0.783 1.471-1.668 2.478-2.654 3.021v0l-4.032-2.145c-1.879-1-3.189-1.607-3.932-1.821-0.743-0.214-1.221-0.313-1.434-0.296v0c-0.222 0.018-0.38 0.116-0.475 0.293-0.091 0.171-0.075 0.354 0.049 0.549v0c0.757 0.13 1.509 0.341 2.256 0.632v0c0.975 0.405 2.005 0.897 3.093 1.475v0l5.219 2.778c0.184 1.463-0.121 2.941-0.917 4.436v0c-0.45 0.845-0.982 1.596-1.598 2.254-0.621 0.655-1.266 1.104-1.934 1.347v0l-13.902-7.399c-1.53-0.814-2.561-1.841-3.092-3.079v0c-0.595-1.332-0.485-2.764 0.329-4.293v0l9.395-17.652c0.314-0.591 1.223-0.66 2.726-0.208 1.512 0.449 3.689 1.429 6.531 2.941z" fill="#c9efc7" data-fill-palette-color="default"></path><path d="M113.006 278.191l-14.732-4.047c-1.504-0.413-2.553-1.128-3.147-2.146-0.6-1.025-0.679-2.341-0.238-3.948v0l5.447-19.823c0.885-0.416 1.888-0.647 3.011-0.692 1.123-0.045 2.239 0.084 3.35 0.389v0c1.639 0.45 2.912 1.234 3.82 2.351v0c0.979 1.261 1.246 2.702 0.8 4.321v0l-3.047 11.093c-0.773-0.143-1.573-0.134-2.402 0.027-0.827 0.155-1.292 0.422-1.397 0.803v0c-0.062 0.226 0.01 0.457 0.215 0.694v0c1.651-0.754 3.792-0.769 6.425-0.046v0l4.801 1.319c0.466 1.814 0.475 3.538 0.027 5.171v0c-0.223 0.813-0.613 1.674-1.168 2.583-0.553 0.903-1.142 1.553-1.765 1.951z" fill="#c9efc7" data-fill-palette-color="default"></path><path d="M131.384 279.784v0c-1.358-0.022-2.491-0.147-3.398-0.376v0c-1.254-0.288-2.17-0.714-2.75-1.279v0c-1.273-2.811-2.354-5.884-3.244-9.219v0c-1.224-4.618-2.057-9.376-2.5-14.276v0c0.644-0.913 1.519-1.619 2.624-2.116 1.099-0.491 2.321-0.725 3.666-0.703v0c2.021 0.033 3.604 0.443 4.749 1.231 1.138 0.788 1.696 1.898 1.673 3.33v0c-0.111 1.062-0.223 2.623-0.337 4.683-0.107 2.06-0.174 3.923-0.201 5.588v0c-0.007 0.462 0.03 0.824 0.113 1.086 0.09 0.256 0.282 0.386 0.576 0.391v0c0.114 0.002 0.255-0.016 0.423-0.053v0c-0.011-0.127-0.015-0.338-0.01-0.633v0l0.012-0.732c0.033-2.034 0.141-4.378 0.324-7.033 0.177-2.648 0.376-4.622 0.598-5.923v0c1.284-0.762 2.789-1.13 4.515-1.102 1.726 0.028 3.111 0.288 4.154 0.78v0c1.248 0.609 1.9 1.48 1.955 2.612v0c-0.096 1.377-0.248 2.727-0.457 4.048-0.209 1.329-0.461 2.86-0.756 4.596-0.296 1.735-0.485 2.883-0.568 3.444v0c0.113 0.055 0.26 0.085 0.44 0.088 0.187 0.003 0.359-0.064 0.515-0.203 0.156-0.138 0.285-0.474 0.388-1.007v0c0.471-2.234 0.867-4.591 1.189-7.069 0.321-2.485 0.54-4.649 0.657-6.495v0c1.299-0.849 3.086-1.255 5.36-1.218v0c1.833 0.03 3.288 0.538 4.363 1.526 1.082 0.995 1.609 2.312 1.582 3.951v0c-0.018 1.091-0.582 3.946-1.694 8.566v0c-0.575 2.434-1.12 4.51-1.637 6.228-0.523 1.725-0.944 2.936-1.263 3.634v0c-0.665 1.401-1.645 2.403-2.94 3.004-1.288 0.608-2.929 0.896-4.923 0.865v0c-0.796-0.013-1.714-0.148-2.755-0.406-1.04-0.258-1.832-0.538-2.375-0.842v0c-0.274-0.433-0.578-1.094-0.912-1.982-0.334-0.889-0.54-1.558-0.62-2.008v0c-0.542 0.005-0.818 0.295-0.827 0.87v0c-0.007 0.448 0.194 1.278 0.602 2.489v0c-1.484 1.154-3.588 1.709-6.312 1.665z" fill="#c9efc7" data-fill-palette-color="default"></path><path d="M167.284 249.89v0l11.724-3.134c0.562 0.549 1.043 1.179 1.441 1.891 0.393 0.719 0.671 1.383 0.833 1.99v0c0.365 1.364 0.371 2.464 0.019 3.299-0.345 0.833-1 1.379-1.962 1.636v0l-8.185 2.188c-0.498 0.133-0.694 0.397-0.589 0.791v0l0.042 0.155c0.022 0.084 0.05 0.136 0.083 0.155v0l9.707-2.595c0.352 0.356 0.703 0.83 1.055 1.422v0c0.345 0.642 0.59 1.235 0.735 1.778v0c0.43 1.61 0.47 2.95 0.119 4.02v0l-4.413 1.18c-2.056 0.549-3.428 0.999-4.117 1.349-0.689 0.35-1.106 0.604-1.252 0.761v0c-0.15 0.165-0.199 0.344-0.147 0.538 0.05 0.187 0.187 0.31 0.41 0.368v0c0.642-0.421 1.336-0.78 2.082-1.076v0c0.989-0.368 2.078-0.711 3.268-1.029v0l5.712-1.526c1.132 0.944 1.917 2.234 2.354 3.869v0c0.247 0.925 0.37 1.837 0.368 2.739-0.008 0.903-0.173 1.671-0.496 2.304v0l-15.216 4.066c-1.674 0.448-3.128 0.4-4.36-0.143v0c-1.344-0.569-2.239-1.691-2.687-3.366v0l-5.163-19.317c-0.173-0.646 0.445-1.317 1.852-2.012 1.412-0.703 3.673-1.47 6.783-2.301z" fill="#c9efc7" data-fill-palette-color="default"></path><path d="M199.988 254.446l1.229 2.268c0.072 0.007 0.223-0.052 0.452-0.177 0.235-0.128 0.372-0.304 0.41-0.53 0.037-0.226-0.054-0.542-0.274-0.947v0l-0.192-0.353c-0.246-0.453-0.475-0.751-0.69-0.894-0.211-0.137-0.434-0.141-0.669-0.013-0.241 0.131-0.393 0.244-0.456 0.338v0c0.044 0.052 0.107 0.155 0.19 0.308zM196.309 247.66l1.134 2.091c0.072 0.007 0.223-0.052 0.452-0.176 0.235-0.128 0.365-0.316 0.39-0.566 0.021-0.255-0.081-0.592-0.307-1.009v0l-0.062-0.115c-0.239-0.441-0.464-0.73-0.676-0.867-0.208-0.131-0.43-0.133-0.665-0.005-0.241 0.131-0.393 0.244-0.456 0.339v0c0.047 0.058 0.11 0.161 0.19 0.308zM192.738 265.021l-9.189-16.953c-0.153-0.282-0.092-0.731 0.184-1.344v0c0.578-1.28 1.997-2.803 4.26-4.57v0c1.18-0.913 2.546-1.791 4.099-2.633v0c3.695-2.003 6.88-2.804 9.555-2.404v0c2.338 0.354 4.062 1.554 5.172 3.602v0c0.402 0.741 0.665 1.535 0.788 2.381 0.127 0.852 0.048 1.584-0.237 2.195v0c-0.832 0.025-1.55 0.201-2.156 0.53v0c-0.282 0.153-0.467 0.325-0.554 0.516-0.09 0.186-0.053 0.428 0.11 0.729v0c1.85-0.912 3.613-1.022 5.289-0.332v0c1.506 0.63 2.71 1.777 3.613 3.442v0c1.397 2.577 1.336 5.034-0.183 7.372v0c-1.431 2.191-4.179 4.389-8.244 6.593v0c-2.848 1.543-4.984 2.587-6.409 3.131-1.428 0.538-2.617 0.635-3.566 0.289-0.955-0.343-1.799-1.191-2.532-2.544z" fill="#c9efc7" data-fill-palette-color="default"></path><path d="M224.976 234.369l-1.232-1.349c-0.944-1.032-1.641-1.701-2.091-2.005-0.446-0.3-0.792-0.336-1.04-0.111v0c-0.153 0.14-0.246 0.316-0.279 0.528v0c0.191 0.17 0.449 0.392 0.772 0.667 0.324 0.275 0.949 0.919 1.875 1.932v0l0.921 1.007c0.646 0.706 1.098 1.231 1.357 1.575 0.264 0.348 0.49 0.645 0.678 0.89v0c0.107 0.137 0.213 0.272 0.315 0.405v0c0.218-0.009 0.404-0.084 0.557-0.224v0c0.247-0.226 0.239-0.577-0.023-1.052-0.258-0.471-0.861-1.225-1.81-2.263zM231.683 245.442l-3.927 3.589c-1.151 1.052-2.315 1.558-3.493 1.52-1.187-0.039-2.343-0.674-3.467-1.904v0l-12.765-13.967c-0.718-0.785-0.537-2.17 0.542-4.153 1.084-1.988 2.597-3.869 4.538-5.644v0c3.428-3.133 6.859-4.75 10.293-4.852v0c3.695-0.113 7.154 1.593 10.378 5.121v0c2.903 3.176 4.153 6.553 3.75 10.13-0.402 3.577-2.352 6.964-5.849 10.16z" fill="#c9efc7" data-fill-palette-color="default"></path><path d="M231.076 205.654v0l6.794-10.056c0.785 0.046 1.561 0.206 2.328 0.482 0.768 0.285 1.413 0.604 1.934 0.956v0c1.17 0.79 1.896 1.616 2.179 2.477 0.286 0.856 0.15 1.696-0.409 2.523v0l-4.742 7.02c-0.288 0.427-0.264 0.755 0.074 0.983v0l0.133 0.09c0.072 0.049 0.127 0.069 0.164 0.062v0l5.625-8.326c0.499 0.038 1.075 0.165 1.73 0.381v0c0.681 0.259 1.255 0.545 1.721 0.86v0c1.381 0.933 2.29 1.918 2.726 2.957v0l-2.557 3.784c-1.191 1.763-1.932 3.003-2.222 3.72-0.29 0.717-0.439 1.181-0.446 1.395v0c-0.005 0.223 0.076 0.39 0.242 0.503 0.161 0.109 0.345 0.112 0.551 0.009v0c0.209-0.739 0.497-1.465 0.866-2.178v0c0.505-0.927 1.102-1.9 1.791-2.92v0l3.31-4.899c1.474-0.03 2.912 0.429 4.315 1.377v0c0.793 0.536 1.484 1.144 2.074 1.825 0.586 0.687 0.965 1.375 1.137 2.064v0l-8.817 13.051c-0.97 1.436-2.099 2.353-3.386 2.752v0c-1.387 0.452-2.799 0.192-4.235-0.778v0l-16.568-11.195c-0.554-0.375-0.528-1.286 0.078-2.733 0.605-1.457 1.808-3.519 3.61-6.186z" fill="#c9efc7" data-fill-palette-color="default"></path><path d="M247.495 182.311v0l12.279 5.284c0.098-0.149 0.168-0.28 0.21-0.393v0c0.163-0.439-0.072-0.805-0.705-1.098v0l-14.026-6.202c-0.206-0.541-0.244-1.408-0.114-2.602v0c0.153-1.121 0.386-2.102 0.698-2.942v0c0.737-1.982 1.742-3.301 3.014-3.956 1.276-0.646 2.629-0.704 4.058-0.172v0c0.803 0.299 2.479 1.293 5.027 2.983 2.549 1.69 5.974 4.028 10.276 7.014v0c1.5 1.072 2.327 2.526 2.48 4.36v0c0.125 1.603-0.23 3.527-1.065 5.772v0c-0.527 1.418-1.185 2.697-1.974 3.839-0.782 1.144-1.611 1.989-2.485 2.535v0c-2.668 0.186-6.199 0.061-10.592-0.373-4.391-0.441-8.733-1.159-13.025-2.156v0c-1.366-1.914-1.548-4.217-0.547-6.907v0c1.29-3.469 3.454-5.131 6.491-4.987z" fill="#c9efc7" data-fill-palette-color="default"></path><path d="M2.863 141.641c0-5.885 4.771-10.656 10.656-10.656 5.885 0 10.656 4.771 10.656 10.656 0 5.885-4.771 10.656-10.656 10.656-5.885 0-10.656-4.771-10.656-10.656z" fill="#50a060" data-fill-palette-color="primary"></path><path d="M255.825 141.641c0-5.885 4.771-10.656 10.656-10.656 5.885 0 10.656 4.771 10.656 10.656 0 5.885-4.771 10.656-10.656 10.656-5.885 0-10.656-4.771-10.656-10.656z" fill="#50a060" data-fill-palette-color="primary"></path></g></svg></g></svg></g></svg></g></svg></g><defs></defs></svg><rect width="280" height="280" fill="none" stroke="none" visibility="hidden"></rect></g></svg></g></svg>