<svg xmlns="http://www.w3.org/2000/svg" version="1.1" xmlns:xlink="http://www.w3.org/1999/xlink" xmlns:svgjs="http://svgjs.dev/svgjs" width="1000" height="1125" viewBox="0 0 1000 1125"><g transform="matrix(1,0,0,1,0.00011477487282718357,0)"><svg viewBox="0 0 320 360" data-background-color="#ffffff" preserveAspectRatio="xMidYMid meet" height="1125" width="1000" xmlns="http://www.w3.org/2000/svg" xmlns:xlink="http://www.w3.org/1999/xlink"><g id="tight-bounds" transform="matrix(1,0,0,1,-0.00003672795929787753,0)"><svg viewBox="0 0 320 360" height="360" width="320"><g><svg></svg></g><g><svg viewBox="0 0 320 360" height="360" width="320"><g><path transform="translate(-32.1528,-12.1528) scale(3.84303,3.84303)" d="M88.492 50l1.711-2.963c2.946-5.102 1.198-11.626-3.904-14.572l-2.963-1.711v-3.422c0-5.891-4.776-10.667-10.667-10.667h-3.422l-1.711-2.963c-2.946-5.102-9.47-6.85-14.572-3.904l-2.964 1.71-2.963-1.711c-5.102-2.945-11.626-1.197-14.572 3.905l-1.711 2.963h-3.422c-5.891 0-10.667 4.776-10.667 10.667v3.422l-2.963 1.711c-5.102 2.946-6.85 9.47-3.904 14.572l1.71 2.963-1.711 2.963c-2.945 5.102-1.197 11.626 3.905 14.572l2.963 1.711v3.422c0 5.891 4.776 10.667 10.667 10.667h3.422l1.711 2.963c2.946 5.102 9.47 6.85 14.572 3.904l2.963-1.71 2.963 1.711c5.102 2.946 11.626 1.198 14.572-3.904l1.711-2.963h3.422c5.891 0 10.667-4.776 10.667-10.667v-3.422l2.963-1.711c5.102-2.946 6.85-9.47 3.904-14.572zM85.832 33.273c2.252 1.3 3.862 3.399 4.535 5.91 0.673 2.511 0.328 5.135-0.972 7.386l-1.441 2.497-4.618-7.999v-9.236zM73.72 73.72l-15.038 8.682h-17.364l-15.038-8.682-8.682-15.038v-17.364l8.682-15.038 15.038-8.682h17.364l15.038 8.682 8.682 15.038v17.364zM82.401 60.549v8.158l-7.065 4.079zM72.786 75.336l-4.079 7.065h-8.158zM57.065 83.335l-7.065 4.079-7.065-4.079zM39.451 82.401h-8.158l-4.079-7.065zM24.664 72.786l-7.065-4.079v-8.158zM16.665 57.065l-4.079-7.065 4.079-7.065zM17.599 39.451v-8.158l7.065-4.079zM27.214 24.664l4.079-7.065h8.158zM42.935 16.665l7.065-4.079 7.065 4.079zM60.549 17.599h8.158l4.079 7.065zM75.336 27.214l7.065 4.079v8.158zM83.335 42.935l4.079 7.065-4.079 7.065zM72.668 17.599c2.6 0 5.044 1.012 6.883 2.851 1.838 1.838 2.851 4.283 2.851 6.883v2.883l-7.999-4.618-4.618-7.999zM53.43 10.606c2.252-1.3 4.875-1.645 7.386-0.972 2.511 0.673 4.61 2.284 5.91 4.535l1.441 2.497h-9.236l-7.999-4.618zM33.273 14.168c1.3-2.252 3.399-3.862 5.91-4.535 2.511-0.673 5.135-0.328 7.386 0.972l2.497 1.441-7.999 4.618h-9.236zM17.599 27.332c0-2.6 1.012-5.044 2.851-6.883 1.838-1.838 4.283-2.851 6.883-2.851h2.883l-4.618 7.999-7.999 4.618zM10.606 46.57c-1.3-2.252-1.645-4.875-0.972-7.386 0.673-2.511 2.284-4.61 4.535-5.91l2.497-1.441v9.236l-4.618 7.999zM14.168 66.727c-2.252-1.3-3.862-3.399-4.535-5.91-0.673-2.511-0.328-5.135 0.972-7.386l1.441-2.497 4.618 7.999v9.236zM27.332 82.401c-2.6 0-5.044-1.012-6.883-2.851-1.838-1.838-2.851-4.283-2.851-6.883v-2.883l7.999 4.618 4.618 7.999zM46.57 89.394c-2.252 1.3-4.875 1.645-7.386 0.972-2.511-0.673-4.61-2.284-5.91-4.535l-1.441-2.497h9.236l7.999 4.618zM66.727 85.832c-1.3 2.252-3.399 3.862-5.91 4.535-2.511 0.673-5.135 0.328-7.386-0.972l-2.497-1.441 7.999-4.618h9.236zM82.401 72.668c0 2.6-1.012 5.044-2.851 6.883-1.838 1.838-4.283 2.851-6.883 2.851h-2.883l4.618-7.999 7.999-4.618zM90.367 60.816c-0.673 2.511-2.284 4.61-4.535 5.91l-2.497 1.441v-9.236l4.618-7.999 1.441 2.497c1.3 2.253 1.646 4.876 0.973 7.387z" fill="#a437db" fill-rule="nonzero" stroke="none" stroke-width="1" stroke-linecap="butt" stroke-linejoin="miter" stroke-miterlimit="10" stroke-dasharray="" stroke-dashoffset="0" font-family="none" font-weight="none" font-size="none" text-anchor="none" style="mix-blend-mode: normal" data-fill-palette-color="tertiary"></path></g><g transform="matrix(1,0,0,1,70,90)"><svg viewBox="0 0 180 180" height="180" width="180"><g><svg viewBox="0 0 180 180" height="180" width="180"><g><svg viewBox="0 0 180 180" height="180" width="180"><g id="textblocktransform"><svg viewBox="0 0 180 180" height="180" width="180" id="textblock"><g><svg viewBox="0 0 180 180" height="180" width="180"><g transform="matrix(1,0,0,1,58.816590949673255,58.18019484660536)"><svg viewBox="0 0 62.36681810065349 63.63961030678928" height="63.63961030678928" width="62.36681810065349"><g><svg xmlns="http://www.w3.org/2000/svg" xmlns:xlink="http://www.w3.org/1999/xlink" version="1.1" x="0" y="0" viewBox="0 0 98 100.00000000000001" enable-background="new 0 0 100 100" xml:space="preserve" width="62.36681810065349" height="63.63961030678928" class="icon-kg-0" data-fill-palette-color="accent" id="kg-0"><g fill="#b10dc9" data-fill-palette-color="accent"><circle cx="49.494" cy="6.603" r="2.1" fill="#b10dc9" data-fill-palette-color="accent"></circle><path d="M18.267 34.851l6.123-7.465c0.518-0.63 0.425-1.56-0.204-2.076-0.629-0.517-1.56-0.424-2.076 0.204l-6.972 8.499c-0.481 0.586-0.439 1.443 0.098 1.979l7.593 7.591c0.288 0.289 0.665 0.433 1.042 0.433 0.378 0 0.755-0.144 1.043-0.433 0.576-0.576 0.576-1.51 0-2.086L18.267 34.851z" fill="#b10dc9" data-fill-palette-color="accent"></path><path d="M44.093 32.998L36.5 25.406c-0.576-0.576-1.509-0.576-2.086 0-0.576 0.577-0.576 1.511 0 2.087l6.647 6.646-6.123 7.465c-0.516 0.63-0.424 1.56 0.206 2.077 0.274 0.225 0.605 0.334 0.935 0.334 0.427 0 0.851-0.185 1.142-0.54l6.97-8.499C44.671 34.39 44.63 33.534 44.093 32.998z" fill="#b10dc9" data-fill-palette-color="accent"></path><path d="M88.568 0H9.432C4.491 0 0 4.02 0 8.96v55.608C0 69.51 4.491 74 9.432 74h31.279c0.159 2 0.311 8.268-0.323 10.369-1.163 1.729-13.49 5.365-24.164 7.854C15.56 92.379 15 92.854 15 93.537v4.992c0 0.813 0.835 1.471 1.647 1.471h64.707C82.166 100 83 99.342 83 98.529v-4.992c0-0.684-0.559-1.277-1.225-1.434-10.732-2.486-23.082-6.008-24.202-7.625C56.896 82.277 56.925 76 57.039 74h31.529C93.508 74 98 69.51 98 64.568V8.96C98 4.02 93.508 0 88.568 0zM80 94.703V97H18v-2.298c11-2.638 24.097-6.121 25.095-9.362C43.963 82.512 43.796 76 43.657 74h10.438c-0.104 2-0.188 8.514 0.682 11.343C55.773 88.583 69 92.064 80 94.703zM95 64.98c0 3.326-3.695 6.02-7.02 6.02H9.02C5.695 71 3 68.307 3 64.98V9.019C3 5.695 5.695 3 9.02 3h78.96C91.305 3 95 5.695 95 9.019V64.98z" fill="#b10dc9" data-fill-palette-color="accent"></path><path d="M88.529 12H9.471C8.659 12 8 12.659 8 13.471v44.058C8 58.342 8.659 59 9.471 59h79.058C89.342 59 90 58.342 90 57.529V13.471C90 12.659 89.342 12 88.529 12zM11 15h37v41H11V15zM87 56H51V15h36V56z" fill="#b10dc9" data-fill-palette-color="accent"></path><path d="M54.5 36h29c0.828 0 1.5-0.671 1.5-1.5v-16c0-0.829-0.672-1.5-1.5-1.5h-29c-0.828 0-1.5 0.671-1.5 1.5v16C53 35.329 53.672 36 54.5 36zM56 20h26v13H56V20z" fill="#b10dc9" data-fill-palette-color="accent"></path><path d="M83 39H55c-0.828 0-1.5 0.671-1.5 1.5S54.172 42 55 42h28c0.828 0 1.5-0.671 1.5-1.5S83.828 39 83 39z" fill="#b10dc9" data-fill-palette-color="accent"></path><path d="M83 45H55c-0.828 0-1.5 0.671-1.5 1.5S54.172 48 55 48h28c0.828 0 1.5-0.671 1.5-1.5S83.828 45 83 45z" fill="#b10dc9" data-fill-palette-color="accent"></path><path d="M83 51H55c-0.828 0-1.5 0.672-1.5 1.5S54.172 54 55 54h28c0.828 0 1.5-0.672 1.5-1.5S83.828 51 83 51z" fill="#b10dc9" data-fill-palette-color="accent"></path></g></svg></g></svg></g><g><path d="M13.482 61.205c0.095-0.042 0.17-0.135 0.225-0.278 0.055-0.144 0.071-0.277 0.048-0.402v0c-1.37-0.278-2.189-0.425-2.455-0.441v0c-0.28 0-0.456 0.093-0.528 0.281v0c-0.034 0.087-0.048 0.2-0.044 0.338v0zM16.321 65.195v0c0.087 0.127 0.181 0.21 0.281 0.248v0c0.243 0.094 0.539-0.058 0.885-0.454 0.338-0.393 0.657-0.912 0.956-1.557v0c1.261 0.357 2 0.506 2.217 0.446v0c0.256 0.285 0.403 0.851 0.442 1.698 0.03 0.851-0.13 1.732-0.482 2.644v0c-0.467 1.211-1.127 2.151-1.981 2.819-0.851 0.662-1.688 0.834-2.512 0.515v0c-0.219-0.084-0.404-0.181-0.555-0.289v0l-11.056-7.375c-0.171-0.84-0.196-1.779-0.075-2.816 0.112-1.033 0.364-2.058 0.756-3.075v0c0.561-1.455 1.288-2.605 2.181-3.452v0c1.015-0.957 2.099-1.36 3.253-1.208v0l13.095 1.727c0.803 1.321 0.821 2.974 0.055 4.959v0c-0.373 0.968-0.861 1.719-1.462 2.255-0.607 0.533-1.254 0.732-1.94 0.597v0l-1.654-0.316c0.185-0.517 0.275-1.049 0.271-1.595 0-0.538-0.104-0.847-0.309-0.926v0c-0.137-0.053-0.267-0.042-0.39 0.032v0c0.1 0.411 0.119 0.871 0.06 1.379-0.062 0.514-0.17 0.971-0.324 1.371v0c-0.441 1.143-1.011 1.934-1.712 2.373z" fill="#a437db" data-fill-palette-color="primary"></path><path d="M18.278 39.487v0l0.499 0.356c0.402 0.739 0.72 1.307 0.954 1.705 0.23 0.403 0.408 0.649 0.533 0.738v0c0.212 0.152 0.406 0.105 0.581-0.14v0l-3.23-5.599c0.033-0.749 0.365-1.565 0.994-2.447 0.63-0.882 1.417-1.467 2.363-1.755v0c1.038-0.303 2.031-0.116 2.979 0.561v0c0.79 0.564 1.373 1.387 1.751 2.47 0.383 1.087 0.544 2.267 0.483 3.539v0c-0.516 0.24-0.891 0.523-1.125 0.85-0.233 0.327-0.192 0.603 0.124 0.829v0c0.31-0.296 0.623-0.538 0.937-0.725 0.324-0.188 0.796-0.349 1.416-0.481v0l4.812-1.005c2.239 1.919 2.582 3.968 1.027 6.146v0c-0.575 0.806-1.276 1.35-2.102 1.632v0c-0.965 0.339-2.074 0.349-3.327 0.03v0l-3.308-0.807-0.041 0.057c-0.175 0.245-0.159 0.442 0.048 0.589v0c0.136 0.097 0.531 0.223 1.185 0.378v0c0.703 0.19 1.663 0.406 2.879 0.649v0l0.858 0.612c0.14 1.267-0.319 2.642-1.377 4.123v0c-0.568 0.795-1.235 1.35-2.003 1.666v0c-0.851 0.363-1.639 0.286-2.363-0.231v0l-11.438-8.165c-0.147-1.256 0.333-2.661 1.441-4.213v0c0.575-0.806 1.232-1.369 1.971-1.689v0c0.863-0.346 1.69-0.237 2.479 0.327z" fill="#a437db" data-fill-palette-color="primary"></path><path d="M29.876 22.591v0l5.931-5.142c0.487 0.153 0.948 0.383 1.382 0.689 0.434 0.306 0.784 0.613 1.051 0.922v0c0.601 0.693 0.916 1.332 0.945 1.918 0.034 0.581-0.194 1.084-0.684 1.509v0l-4.141 3.59c-0.258 0.224-0.301 0.434-0.13 0.631v0l0.072 0.084c0.035 0.04 0.067 0.062 0.095 0.063v0l4.922-4.267c0.305 0.107 0.644 0.283 1.016 0.528v0c0.383 0.279 0.693 0.555 0.93 0.828v0c0.71 0.819 1.113 1.59 1.208 2.313v0l-2.23 1.933c-1.042 0.903-1.717 1.555-2.025 1.955-0.299 0.401-0.467 0.666-0.505 0.797v0c-0.038 0.14-0.016 0.257 0.068 0.353 0.083 0.096 0.197 0.13 0.341 0.103v0c0.253-0.423 0.555-0.831 0.906-1.224v0c0.476-0.493 1.015-1 1.617-1.521v0l2.889-2.505c0.928 0.223 1.752 0.749 2.471 1.578v0c0.408 0.47 0.737 0.968 0.989 1.493 0.252 0.526 0.373 1.018 0.365 1.478v0l-7.706 6.68c-0.855 0.741-1.715 1.128-2.581 1.161v0c-0.948 0.051-1.79-0.348-2.526-1.197v0l-8.482-9.784c-0.285-0.329-0.114-0.898 0.513-1.707 0.622-0.805 1.722-1.891 3.299-3.259z" fill="#a437db" data-fill-palette-color="primary"></path><path d="M46.605 10.864v0l6.93-3.686c0.441 0.258 0.838 0.585 1.192 0.981 0.354 0.395 0.627 0.773 0.819 1.133v0c0.43 0.809 0.595 1.503 0.492 2.08-0.096 0.574-0.431 1.014-1.004 1.319v0l-4.839 2.573c-0.301 0.16-0.391 0.356-0.268 0.586v0l0.052 0.098c0.025 0.047 0.051 0.075 0.078 0.083v0l5.752-3.059c0.274 0.173 0.564 0.42 0.872 0.742v0c0.311 0.357 0.552 0.696 0.721 1.014v0c0.509 0.957 0.729 1.799 0.661 2.525v0l-2.605 1.386c-1.217 0.647-2.021 1.131-2.411 1.453-0.381 0.324-0.604 0.545-0.67 0.663v0c-0.069 0.127-0.073 0.247-0.014 0.36 0.06 0.112 0.163 0.171 0.31 0.176v0c0.341-0.356 0.727-0.686 1.156-0.99v0c0.574-0.374 1.213-0.747 1.916-1.121v0l3.377-1.796c0.855 0.425 1.54 1.121 2.055 2.09v0c0.292 0.549 0.502 1.108 0.63 1.677 0.128 0.569 0.136 1.076 0.025 1.522v0l-9.004 4.788c-0.999 0.531-1.923 0.716-2.775 0.555v0c-0.935-0.162-1.667-0.739-2.194-1.732v0l-6.08-11.432c-0.204-0.384 0.09-0.9 0.881-1.549 0.786-0.645 2.101-1.458 3.945-2.439z" fill="#a437db" data-fill-palette-color="primary"></path><path d="M76.813 18.268l-9.544 2.623c-0.968 0.266-1.791 0.214-2.468-0.155-0.671-0.371-1.149-1.076-1.434-2.114v0l-3.529-12.845c0.356-0.521 0.841-0.981 1.453-1.377 0.613-0.397 1.277-0.694 1.993-0.892v0c1.058-0.291 2.027-0.276 2.906 0.045v0c0.963 0.374 1.589 1.087 1.879 2.138v0l1.973 7.182c-0.478 0.18-0.924 0.452-1.337 0.815-0.407 0.362-0.577 0.665-0.51 0.911v0c0.041 0.148 0.159 0.251 0.355 0.308v0c0.666-0.96 1.854-1.675 3.564-2.145v0l3.107-0.854c0.859 0.853 1.434 1.809 1.725 2.868v0c0.144 0.523 0.21 1.129 0.198 1.819-0.005 0.688-0.116 1.246-0.331 1.673z" fill="#a437db" data-fill-palette-color="primary"></path><path d="M84.68 18.26v0c-0.877 0.014-1.614-0.041-2.211-0.165v0c-0.819-0.161-1.422-0.418-1.81-0.773v0c-0.879-1.793-1.641-3.761-2.285-5.906v0c-0.892-2.964-1.531-6.025-1.916-9.185v0c0.398-0.609 0.949-1.083 1.653-1.422 0.697-0.346 1.484-0.526 2.36-0.541v0c1.305-0.021 2.336 0.213 3.094 0.703 0.758 0.49 1.144 1.196 1.159 2.119v0c-0.056 0.69-0.096 1.702-0.121 3.034-0.032 1.339-0.039 2.547-0.021 3.625v0c0.005 0.301 0.039 0.535 0.101 0.701 0.063 0.166 0.188 0.248 0.376 0.245v0c0.074-0.001 0.167-0.016 0.28-0.045v0c-0.015-0.08-0.024-0.217-0.027-0.411v0l-0.007-0.472c-0.022-1.318 0.001-2.838 0.066-4.559 0.059-1.721 0.145-3.004 0.258-3.849v0c0.821-0.522 1.791-0.792 2.908-0.811 1.111-0.018 2.01 0.121 2.698 0.418v0c0.823 0.368 1.263 0.92 1.322 1.655v0c-0.032 0.891-0.102 1.769-0.208 2.634-0.106 0.865-0.237 1.861-0.393 2.988-0.156 1.127-0.254 1.871-0.295 2.233v0c0.074 0.039 0.172 0.057 0.292 0.056 0.114-0.002 0.22-0.05 0.319-0.146 0.099-0.089 0.179-0.307 0.24-0.656v0c0.257-1.457 0.463-2.993 0.618-4.608 0.154-1.609 0.249-3.012 0.282-4.212v0c0.827-0.582 1.977-0.886 3.449-0.909v0c1.184-0.019 2.136 0.283 2.856 0.907 0.72 0.617 1.088 1.458 1.105 2.522v0c0.011 0.703-0.293 2.561-0.913 5.576v0c-0.322 1.585-0.631 2.942-0.927 4.071-0.303 1.129-0.551 1.92-0.745 2.372v0c-0.4 0.923-1.011 1.596-1.834 2.017-0.823 0.415-1.88 0.633-3.172 0.655v0c-0.515 0.008-1.112-0.059-1.79-0.202-0.678-0.143-1.196-0.308-1.554-0.497v0c-0.185-0.278-0.396-0.7-0.633-1.264-0.237-0.572-0.384-1.001-0.443-1.288v0c-0.355 0.012-0.529 0.206-0.522 0.581v0c0.005 0.288 0.154 0.821 0.447 1.598v0c-0.944 0.778-2.296 1.182-4.056 1.211z" fill="#a437db" data-fill-palette-color="primary"></path><path d="M112.563 2.666v0l7.583 2.027c0.146 0.489 0.214 0.999 0.204 1.53-0.01 0.531-0.068 0.993-0.173 1.387v0c-0.237 0.886-0.589 1.505-1.058 1.858-0.462 0.354-1.006 0.448-1.633 0.28v0l-5.295-1.415c-0.33-0.088-0.528-0.006-0.596 0.246v0l-0.028 0.106c-0.014 0.052-0.014 0.09 0 0.115v0l6.294 1.682c0.083 0.313 0.127 0.692 0.132 1.137v0c-0.016 0.474-0.07 0.885-0.163 1.234v0c-0.28 1.047-0.693 1.813-1.238 2.298v0l-2.851-0.762c-1.332-0.356-2.25-0.549-2.754-0.58-0.5-0.023-0.814-0.013-0.943 0.028v0c-0.137 0.046-0.222 0.131-0.255 0.254-0.033 0.123 0.003 0.236 0.107 0.34v0c0.492-0.028 0.999-0.007 1.52 0.064v0c0.675 0.118 1.397 0.28 2.167 0.485v0l3.695 0.988c0.336 0.893 0.362 1.87 0.079 2.931v0c-0.161 0.601-0.388 1.153-0.682 1.656-0.294 0.503-0.634 0.88-1.019 1.131v0l-9.853-2.634c-1.093-0.292-1.895-0.787-2.408-1.485v0c-0.574-0.756-0.715-1.677-0.425-2.764v0l3.344-12.509c0.112-0.42 0.679-0.598 1.701-0.533 1.015 0.064 2.531 0.365 4.548 0.905z" fill="#a437db" data-fill-palette-color="primary"></path><path d="M127.785 19.938l-0.799 1.474c0.017 0.039 0.101 0.101 0.255 0.183 0.153 0.083 0.296 0.092 0.43 0.028 0.14-0.061 0.28-0.221 0.42-0.48v0l0.124-0.23c0.159-0.294 0.242-0.524 0.247-0.688 0-0.168-0.077-0.293-0.23-0.376-0.159-0.086-0.274-0.126-0.346-0.119v0c-0.016 0.044-0.05 0.114-0.101 0.208zM130.166 15.543l-0.732 1.35c0.017 0.039 0.101 0.101 0.255 0.183 0.153 0.083 0.3 0.086 0.44 0.01 0.146-0.073 0.293-0.245 0.439-0.515v0l0.043-0.08c0.153-0.282 0.231-0.503 0.233-0.661 0-0.168-0.077-0.293-0.231-0.376-0.159-0.086-0.274-0.126-0.346-0.119v0c-0.016 0.044-0.05 0.114-0.101 0.208zM119.477 19.741l5.949-10.979c0.099-0.182 0.365-0.308 0.798-0.378v0c0.897-0.138 2.225 0.094 3.984 0.697v0c0.915 0.321 1.875 0.753 2.881 1.298v0c2.395 1.297 3.957 2.741 4.686 4.331v0c0.637 1.395 0.597 2.755-0.121 4.079v0c-0.261 0.482-0.602 0.907-1.021 1.273-0.413 0.37-0.838 0.585-1.274 0.646v0c-0.309-0.441-0.657-0.767-1.046-0.978v0c-0.188-0.102-0.349-0.143-0.481-0.123-0.132 0.02-0.25 0.124-0.351 0.311v0c1.142 0.687 1.825 1.605 2.047 2.754v0c0.187 1.045-0.011 2.106-0.594 3.182v0c-0.902 1.665-2.256 2.499-4.062 2.503v0c-1.692 0.004-3.856-0.708-6.492-2.135v0c-1.842-0.998-3.163-1.79-3.964-2.376-0.798-0.577-1.271-1.187-1.418-1.83-0.156-0.64 0.004-1.398 0.479-2.275z" fill="#a437db" data-fill-palette-color="primary"></path><path d="M145.162 30.823l0.799-0.874c0.614-0.672 1.004-1.159 1.17-1.46 0.171-0.306 0.175-0.534 0.012-0.683v0c-0.099-0.09-0.22-0.142-0.362-0.154v0c-0.098 0.137-0.222 0.318-0.373 0.543-0.16 0.225-0.541 0.666-1.141 1.323v0l-0.596 0.652c-0.415 0.455-0.727 0.777-0.937 0.966-0.209 0.189-0.389 0.352-0.539 0.487v0c-0.082 0.079-0.164 0.154-0.246 0.224v0c0.025 0.141 0.087 0.257 0.187 0.347v0c0.163 0.149 0.387 0.127 0.672-0.066 0.289-0.198 0.741-0.633 1.354-1.305zM138.41 35.79l-2.542-2.322c-0.741-0.677-1.136-1.4-1.185-2.17-0.044-0.765 0.297-1.546 1.023-2.342v0l8.266-9.049c0.465-0.509 1.369-0.472 2.712 0.111 1.343 0.583 2.645 1.45 3.905 2.602v0c2.219 2.026 3.461 4.144 3.726 6.353v0c0.292 2.379-0.604 4.71-2.689 6.993v0c-1.882 2.06-3.989 3.063-6.322 3.007-2.328-0.051-4.626-1.112-6.894-3.183z" fill="#a437db" data-fill-palette-color="primary"></path><path d="M164.647 38.967v0l4.397 6.502c-0.21 0.465-0.493 0.895-0.848 1.289-0.356 0.394-0.702 0.705-1.041 0.934v0c-0.759 0.514-1.432 0.75-2.016 0.71-0.581-0.035-1.054-0.321-1.418-0.859v0l-3.07-4.54c-0.191-0.283-0.395-0.351-0.611-0.205v0l-0.092 0.062c-0.044 0.03-0.069 0.059-0.074 0.087v0l3.649 5.396c-0.143 0.29-0.358 0.606-0.645 0.945v0c-0.322 0.347-0.633 0.622-0.932 0.825v0c-0.898 0.607-1.712 0.915-2.441 0.924v0l-1.654-2.444c-0.772-1.142-1.339-1.89-1.699-2.244-0.362-0.345-0.606-0.543-0.731-0.596v0c-0.134-0.055-0.254-0.047-0.359 0.024-0.105 0.071-0.153 0.18-0.142 0.327v0c0.39 0.302 0.759 0.65 1.106 1.045v0c0.432 0.532 0.872 1.127 1.318 1.787v0l2.143 3.168c-0.332 0.895-0.952 1.65-1.862 2.264v0c-0.515 0.349-1.049 0.617-1.601 0.805-0.552 0.187-1.055 0.249-1.51 0.185v0l-5.714-8.447c-0.634-0.937-0.915-1.837-0.845-2.701v0c0.062-0.947 0.559-1.735 1.49-2.365v0l10.726-7.255c0.36-0.244 0.905-0.006 1.634 0.713 0.725 0.713 1.672 1.935 2.842 3.664z" fill="#a437db" data-fill-palette-color="primary"></path><path d="M172.542 59.85v0l-8.258 2.618c0.012 0.11 0.033 0.202 0.061 0.277v0c0.105 0.282 0.377 0.359 0.815 0.232v0l9.503-2.9c0.324 0.179 0.709 0.589 1.154 1.23v0c0.401 0.615 0.701 1.192 0.903 1.731v0c0.479 1.285 0.546 2.357 0.202 3.213-0.351 0.859-0.99 1.462-1.919 1.808v0c-0.52 0.194-1.762 0.418-3.724 0.671-1.965 0.247-4.634 0.549-8.007 0.907v0c-1.186 0.114-2.205-0.245-3.059-1.078v0c-0.737-0.732-1.377-1.826-1.919-3.28v0c-0.344-0.922-0.567-1.828-0.67-2.717-0.097-0.892-0.047-1.657 0.151-2.296v0c1.23-1.223 3.012-2.658 5.347-4.307 2.337-1.643 4.769-3.128 7.295-4.455v0c1.482 0.355 2.548 1.403 3.198 3.147v0c0.837 2.245 0.479 3.978-1.072 5.199z" fill="#a437db" data-fill-palette-color="primary"></path><path d="M15.584 120.026c-0.042 0.095-0.036 0.215 0.019 0.358 0.053 0.137 0.131 0.247 0.235 0.329v0c1.19-0.709 1.888-1.15 2.094-1.322v0c0.21-0.181 0.279-0.365 0.206-0.552v0c-0.031-0.081-0.095-0.172-0.19-0.271v0zM10.837 118.981v0c-0.144-0.038-0.269-0.036-0.375 0.004v0c-0.244 0.094-0.359 0.4-0.346 0.919 0.015 0.525 0.128 1.123 0.336 1.795v0c-1.171 0.572-1.813 0.952-1.927 1.14v0c-0.372-0.036-0.857-0.355-1.455-0.957-0.591-0.604-1.061-1.359-1.409-2.264v0c-0.464-1.205-0.601-2.336-0.412-3.391 0.183-1.053 0.683-1.736 1.501-2.051v0c0.219-0.084 0.421-0.137 0.606-0.158v0l13.032-1.939c0.69 0.509 1.337 1.181 1.938 2.018 0.604 0.843 1.1 1.767 1.487 2.773v0c0.558 1.449 0.79 2.779 0.697 3.991v0c-0.106 1.382-0.636 2.399-1.59 3.053v0l-10.791 7.454c-1.467-0.439-2.58-1.646-3.339-3.619v0c-0.368-0.956-0.508-1.834-0.422-2.634 0.089-0.794 0.43-1.37 1.024-1.728v0l1.441-0.866c0.201 0.503 0.485 0.953 0.853 1.35 0.361 0.399 0.642 0.56 0.841 0.482v0c0.137-0.053 0.226-0.148 0.267-0.285v0c-0.347-0.232-0.669-0.556-0.966-0.973-0.297-0.416-0.522-0.825-0.675-1.224v0c-0.435-1.13-0.54-2.094-0.316-2.89z" fill="#a437db" data-fill-palette-color="primary"></path><path d="M29.878 134.273v0l-0.49 0.349c-0.82 0.141-1.453 0.255-1.9 0.344-0.452 0.092-0.741 0.183-0.866 0.272v0c-0.213 0.151-0.233 0.347-0.063 0.587v0l6.301-1.224c0.688 0.274 1.345 0.849 1.971 1.726 0.625 0.877 0.921 1.805 0.886 2.783v0c-0.05 1.071-0.547 1.943-1.49 2.615v0c-0.785 0.559-1.746 0.842-2.884 0.847-1.138 0.006-2.294-0.227-3.467-0.697v0c-0.064-0.563-0.212-1.007-0.446-1.334-0.229-0.322-0.502-0.37-0.817-0.144v0c0.175 0.384 0.302 0.758 0.38 1.121 0.074 0.358 0.074 0.847-0.002 1.468v0l-0.612 4.849c-2.528 1.481-4.562 1.139-6.104-1.024v0c-0.571-0.801-0.856-1.633-0.855-2.497v0c-0.002-1.018 0.349-2.065 1.053-3.141v0l1.822-2.839-0.041-0.058c-0.171-0.24-0.36-0.286-0.567-0.138v0c-0.131 0.093-0.376 0.424-0.735 0.992v0c-0.407 0.594-0.92 1.424-1.54 2.491v0l-0.851 0.606c-1.238-0.285-2.38-1.16-3.424-2.626v0c-0.563-0.79-0.867-1.597-0.911-2.42v0c-0.067-0.913 0.258-1.626 0.978-2.139v0l11.354-8.091c1.226 0.268 2.387 1.171 3.483 2.707v0c0.571 0.801 0.888 1.598 0.952 2.391v0c0.042 0.923-0.33 1.665-1.115 2.224z" fill="#a437db" data-fill-palette-color="primary"></path><path d="M42.597 144.802v0l5.882 5.106c-0.084 0.495-0.244 0.975-0.481 1.443-0.237 0.467-0.49 0.855-0.758 1.163v0c-0.597 0.687-1.18 1.089-1.75 1.206-0.566 0.111-1.092-0.044-1.577-0.465v0l-4.109-3.566c-0.253-0.219-0.465-0.23-0.635-0.034v0l-0.073 0.084c-0.035 0.04-0.052 0.075-0.049 0.103v0l4.874 4.23c-0.063 0.318-0.187 0.675-0.373 1.073v0c-0.217 0.414-0.445 0.757-0.681 1.03v0c-0.702 0.809-1.401 1.313-2.099 1.514v0l-2.213-1.921c-1.036-0.899-1.771-1.471-2.206-1.715-0.434-0.235-0.718-0.367-0.854-0.395v0c-0.139-0.014-0.249 0.027-0.333 0.123-0.083 0.096-0.104 0.211-0.061 0.346v0c0.455 0.191 0.896 0.432 1.325 0.724v0c0.554 0.393 1.132 0.85 1.734 1.372v0l2.865 2.487c-0.094 0.946-0.499 1.831-1.214 2.655v0c-0.399 0.46-0.841 0.852-1.326 1.175-0.48 0.319-0.949 0.506-1.404 0.562v0l-7.642-6.633c-0.844-0.733-1.346-1.522-1.505-2.37v0c-0.174-0.922 0.103-1.803 0.831-2.641v0l8.422-9.703c0.285-0.328 0.867-0.244 1.747 0.253 0.875 0.503 2.096 1.434 3.663 2.794z" fill="#a437db" data-fill-palette-color="primary"></path><path d="M55.73 154.068v0l6.876 3.66c0.029 0.501-0.02 1.005-0.147 1.514-0.127 0.509-0.286 0.943-0.477 1.303v0c-0.428 0.803-0.906 1.326-1.437 1.567-0.527 0.235-1.074 0.202-1.641-0.1v0l-4.802-2.556c-0.295-0.157-0.504-0.121-0.627 0.109v0l-0.052 0.098c-0.025 0.047-0.034 0.084-0.025 0.111v0l5.697 3.033c0.01 0.324-0.031 0.7-0.123 1.128v0c-0.119 0.452-0.264 0.837-0.433 1.157v0c-0.503 0.945-1.072 1.594-1.707 1.946v0l-2.587-1.377c-1.211-0.645-2.056-1.037-2.534-1.179-0.476-0.132-0.782-0.197-0.921-0.194v0c-0.138 0.017-0.237 0.082-0.296 0.195-0.06 0.112-0.054 0.229 0.018 0.351v0c0.486 0.084 0.97 0.221 1.453 0.409v0c0.628 0.258 1.294 0.575 1.997 0.949v0l3.349 1.783c0.12 0.943-0.077 1.896-0.589 2.859v0c-0.286 0.538-0.629 1.018-1.029 1.442-0.397 0.418-0.811 0.705-1.244 0.862v0l-8.931-4.754c-0.987-0.525-1.652-1.183-1.998-1.973v0c-0.376-0.86-0.303-1.78 0.219-2.76v0l6.036-11.342c0.204-0.384 0.791-0.432 1.76-0.144 0.965 0.294 2.364 0.928 4.195 1.903z" fill="#a437db" data-fill-palette-color="primary"></path><path d="M72.651 178.836l-9.476-2.604c-0.961-0.264-1.637-0.724-2.026-1.379-0.383-0.653-0.431-1.5-0.145-2.538v0l3.5-12.738c0.565-0.261 1.208-0.407 1.931-0.437 0.723-0.03 1.443 0.053 2.159 0.249v0c1.052 0.289 1.871 0.792 2.459 1.509v0c0.624 0.81 0.793 1.734 0.508 2.773v0l-1.96 7.134c-0.495-0.094-1.009-0.09-1.545 0.012-0.535 0.103-0.835 0.274-0.9 0.513v0c-0.041 0.148 0.009 0.297 0.148 0.446v0c1.055-0.48 2.431-0.487 4.128-0.021v0l3.087 0.849c0.291 1.163 0.292 2.27 0.004 3.322v0c-0.142 0.516-0.391 1.069-0.747 1.658-0.354 0.583-0.729 1-1.125 1.252z" fill="#a437db" data-fill-palette-color="primary"></path><path d="M84.464 179.861v0c-0.877-0.014-1.605-0.093-2.185-0.236v0c-0.807-0.187-1.398-0.464-1.774-0.832v0c-0.814-1.807-1.505-3.782-2.072-5.927v0c-0.795-2.964-1.331-6.022-1.608-9.171v0c0.411-0.589 0.971-1.042 1.678-1.359 0.708-0.316 1.493-0.468 2.357-0.453v0c1.298 0.021 2.314 0.285 3.049 0.792 0.735 0.507 1.095 1.222 1.079 2.146v0c-0.071 0.682-0.144 1.684-0.219 3.008-0.068 1.324-0.111 2.521-0.128 3.592v0c-0.005 0.294 0.022 0.526 0.079 0.694 0.058 0.168 0.18 0.254 0.367 0.257v0c0.074 0.001 0.164-0.011 0.272-0.036v0c-0.012-0.081-0.017-0.218-0.014-0.412v0l0.008-0.471c0.021-1.305 0.092-2.809 0.214-4.515 0.115-1.705 0.242-2.974 0.383-3.808v0c0.831-0.488 1.799-0.724 2.902-0.706 1.111 0.018 2.002 0.183 2.673 0.495v0c0.803 0.395 1.223 0.957 1.257 1.687v0c-0.061 0.882-0.159 1.751-0.293 2.605-0.141 0.854-0.304 1.836-0.489 2.944-0.192 1.115-0.311 1.852-0.357 2.213v0c0.066 0.041 0.16 0.063 0.28 0.064 0.114 0.002 0.222-0.043 0.323-0.135 0.102-0.085 0.186-0.302 0.251-0.648v0c0.304-1.434 0.56-2.949 0.767-4.546 0.207-1.596 0.346-2.986 0.419-4.169v0c0.839-0.549 1.988-0.811 3.446-0.788v0c1.178 0.019 2.113 0.349 2.805 0.99 0.692 0.634 1.03 1.479 1.013 2.536v0c-0.011 0.703-0.372 2.537-1.083 5.504v0c-0.373 1.56-0.726 2.896-1.059 4.008-0.332 1.106-0.599 1.881-0.801 2.326v0c-0.43 0.903-1.059 1.549-1.888 1.937-0.836 0.388-1.893 0.572-3.172 0.551v0c-0.509-0.008-1.099-0.095-1.772-0.259-0.667-0.165-1.172-0.344-1.518-0.537v0c-0.176-0.284-0.373-0.712-0.591-1.284-0.218-0.566-0.352-0.996-0.401-1.292v0c-0.348 0.008-0.525 0.196-0.531 0.564v0c-0.005 0.288 0.124 0.822 0.386 1.602v0c-0.956 0.741-2.307 1.097-4.053 1.069z" fill="#a437db" data-fill-palette-color="primary"></path><path d="M107.547 160.652v0l7.525-2.011c0.363 0.346 0.671 0.749 0.925 1.207 0.254 0.459 0.434 0.885 0.54 1.279v0c0.235 0.879 0.241 1.588 0.017 2.126-0.225 0.531-0.648 0.88-1.269 1.045v0l-5.256 1.405c-0.323 0.086-0.451 0.256-0.383 0.508v0l0.028 0.107c0.014 0.052 0.033 0.085 0.058 0.098v0l6.235-1.666c0.228 0.23 0.454 0.533 0.68 0.909v0c0.221 0.412 0.378 0.792 0.471 1.142v0c0.276 1.034 0.303 1.897 0.078 2.587v0l-2.831 0.757c-1.325 0.354-2.211 0.643-2.657 0.866-0.438 0.228-0.706 0.39-0.806 0.485v0c-0.089 0.107-0.117 0.222-0.084 0.345 0.033 0.123 0.117 0.204 0.252 0.244v0c0.413-0.27 0.86-0.5 1.343-0.691v0c0.636-0.239 1.338-0.462 2.107-0.668v0l3.666-0.979c0.731 0.608 1.237 1.439 1.518 2.493v0c0.157 0.588 0.234 1.174 0.231 1.756-0.005 0.576-0.113 1.069-0.322 1.479v0l-9.775 2.612c-1.08 0.289-2.015 0.262-2.806-0.081v0c-0.861-0.372-1.436-1.095-1.723-2.168v0l-3.317-12.413c-0.112-0.42 0.284-0.855 1.189-1.305 0.907-0.443 2.362-0.933 4.366-1.468z" fill="#a437db" data-fill-palette-color="primary"></path><path d="M128.563 163.57l0.794 1.464c0.042 0.008 0.14-0.03 0.293-0.113 0.147-0.08 0.233-0.195 0.258-0.345 0.022-0.141-0.038-0.345-0.182-0.609v0l-0.119-0.221c-0.159-0.294-0.307-0.488-0.442-0.583-0.138-0.085-0.283-0.086-0.436-0.003-0.153 0.083-0.248 0.153-0.285 0.211v0c0.028 0.038 0.068 0.104 0.119 0.199zM126.2 159.21l0.727 1.341c0.042 0.008 0.14-0.03 0.293-0.113 0.147-0.08 0.23-0.201 0.249-0.363 0.013-0.159-0.054-0.374-0.201-0.644v0l-0.039-0.071c-0.153-0.282-0.295-0.468-0.427-0.556-0.138-0.085-0.283-0.086-0.436-0.004-0.153 0.083-0.248 0.153-0.285 0.212v0c0.028 0.038 0.068 0.104 0.119 0.198zM123.901 170.367l-5.902-10.89c-0.099-0.182-0.06-0.47 0.115-0.862v0c0.374-0.827 1.288-1.809 2.741-2.947v0c0.756-0.585 1.634-1.149 2.634-1.691v0c2.371-1.285 4.419-1.798 6.143-1.537v0c1.502 0.229 2.608 0.999 3.32 2.311v0c0.258 0.477 0.428 0.986 0.508 1.528 0.084 0.548 0.032 1.022-0.155 1.42v0c-0.533 0.015-0.993 0.127-1.381 0.338v0c-0.182 0.099-0.301 0.209-0.357 0.331-0.056 0.122-0.033 0.277 0.069 0.465v0c1.19-0.584 2.324-0.655 3.402-0.212v0c0.966 0.405 1.739 1.143 2.319 2.214v0c0.896 1.653 0.857 3.231-0.117 4.734v0c-0.918 1.411-2.682 2.824-5.295 4.24v0c-1.83 0.992-3.203 1.66-4.12 2.004-0.92 0.354-1.684 0.418-2.293 0.193-0.615-0.222-1.159-0.769-1.631-1.639z" fill="#a437db" data-fill-palette-color="primary"></path><path d="M144.623 150.668l-0.792-0.867c-0.605-0.662-1.052-1.092-1.342-1.289-0.285-0.193-0.507-0.217-0.665-0.073v0c-0.099 0.09-0.161 0.206-0.186 0.347v0c0.123 0.105 0.292 0.245 0.507 0.421 0.205 0.175 0.606 0.589 1.202 1.24v0l0.596 0.652c0.411 0.449 0.701 0.787 0.871 1.013 0.17 0.226 0.313 0.417 0.429 0.573v0c0.067 0.084 0.132 0.169 0.194 0.258v0c0.147-0.008 0.27-0.057 0.369-0.147v0c0.158-0.144 0.152-0.37-0.019-0.676-0.166-0.301-0.554-0.785-1.164-1.452zM148.936 157.782l-2.527 2.309c-0.736 0.673-1.485 0.999-2.246 0.979-0.757-0.025-1.499-0.434-2.226-1.229v0l-8.201-8.973c-0.461-0.504-0.345-1.394 0.348-2.67 0.697-1.281 1.67-2.492 2.92-3.634v0c2.198-2.009 4.402-3.045 6.612-3.107v0c2.377-0.078 4.601 1.017 6.673 3.284v0c1.865 2.04 2.667 4.212 2.407 6.517-0.259 2.295-1.513 4.47-3.76 6.524z" fill="#a437db" data-fill-palette-color="primary"></path><path d="M148.558 132.208v0l4.361-6.455c0.501 0.023 0.998 0.125 1.49 0.304 0.493 0.179 0.908 0.383 1.247 0.612v0c0.754 0.509 1.223 1.04 1.407 1.593 0.179 0.549 0.088 1.089-0.272 1.621v0l-3.045 4.509c-0.187 0.277-0.173 0.489 0.043 0.635v0l0.092 0.061c0.044 0.03 0.08 0.042 0.108 0.037v0l3.613-5.348c0.323 0.024 0.693 0.104 1.109 0.241v0c0.437 0.166 0.805 0.35 1.105 0.552v0c0.887 0.599 1.473 1.233 1.756 1.901v0l-1.641 2.429c-0.768 1.137-1.247 1.936-1.437 2.397-0.181 0.459-0.277 0.757-0.289 0.894v0c0.003 0.139 0.057 0.244 0.162 0.316 0.105 0.071 0.222 0.077 0.351 0.019v0c0.135-0.474 0.321-0.942 0.559-1.403v0c0.323-0.598 0.707-1.226 1.153-1.886v0l2.124-3.144c0.95-0.02 1.878 0.275 2.782 0.886v0c0.505 0.341 0.947 0.732 1.326 1.174 0.374 0.438 0.616 0.881 0.727 1.327v0l-5.664 8.385c-0.626 0.926-1.349 1.519-2.171 1.779v0c-0.894 0.284-1.802 0.115-2.723-0.507v0l-10.646-7.192c-0.36-0.243-0.347-0.832 0.041-1.765 0.394-0.929 1.171-2.253 2.332-3.972z" fill="#a437db" data-fill-palette-color="primary"></path><path d="M159.11 117.202v0l7.884 3.393c0.069-0.089 0.117-0.171 0.145-0.246v0c0.105-0.282-0.05-0.518-0.465-0.708v0l-9.014-3.984c-0.128-0.347-0.149-0.905-0.063-1.673v0c0.097-0.721 0.245-1.351 0.446-1.891v0c0.476-1.28 1.12-2.129 1.933-2.547 0.817-0.41 1.686-0.444 2.608-0.101v0c0.514 0.191 1.591 0.828 3.231 1.909 1.637 1.087 3.838 2.591 6.601 4.511v0c0.965 0.687 1.5 1.622 1.603 2.803v0c0.075 1.027-0.156 2.262-0.693 3.704v0c-0.338 0.909-0.759 1.735-1.263 2.476-0.502 0.734-1.035 1.275-1.6 1.622v0c-1.715 0.119-3.984 0.039-6.807-0.241-2.821-0.285-5.612-0.749-8.372-1.389v0c-0.879-1.227-0.996-2.705-0.353-4.437v0c0.828-2.227 2.221-3.294 4.179-3.201z" fill="#a437db" data-fill-palette-color="primary"></path><path d="M1.844 91.058c0-3.782 3.066-6.848 6.848-6.848 3.782 0 6.848 3.066 6.849 6.848 0 3.782-3.066 6.848-6.849 6.849-3.782 0-6.848-3.066-6.848-6.849z" fill="#a437db" data-fill-palette-color="primary"></path><path d="M164.459 91.058c0-3.782 3.066-6.848 6.849-6.848 3.782 0 6.848 3.066 6.848 6.848 0 3.782-3.066 6.848-6.848 6.849-3.782 0-6.848-3.066-6.849-6.849z" fill="#a437db" data-fill-palette-color="primary"></path></g></svg></g></svg></g></svg></g></svg></g></svg></g></svg></g><defs></defs></svg><rect width="320" height="360" fill="none" stroke="none" visibility="hidden"></rect></g></svg></g></svg>